<!-- Generated by IcoMoon.io -->
<svg version="1.1" xmlns="http://www.w3.org/2000/svg" width="1463" height="1024" viewBox="0 0 1463 1024">
<g id="icomoon-ignore">
</g>
<path d="M1462.857 951.223c0 40.229-32.622 72.777-72.777 72.777h-585.874c-19.302 0-37.815-7.665-51.463-21.314s-21.314-32.161-21.314-51.463c0-19.302 7.665-37.815 21.314-51.463s32.161-21.314 51.463-21.314h585.874c40.229 0 72.777 32.549 72.777 72.777zM1462.857 512c0 40.229-32.622 72.777-72.777 72.777h-1317.303c-19.302 0-37.813-7.668-51.461-21.316s-21.316-32.159-21.316-51.461c0-19.302 7.668-37.813 21.316-51.461s32.159-21.316 51.461-21.316h1317.303c40.229 0 72.777 32.622 72.777 72.777zM1390.080 145.554c19.302 0 37.815-7.668 51.463-21.316s21.314-32.159 21.314-51.461c0-19.302-7.665-37.813-21.314-51.461s-32.161-21.316-51.463-21.316h-878.446c-9.558 0-19.021 1.882-27.851 5.54s-16.853 9.018-23.611 15.776c-6.758 6.758-12.119 14.781-15.776 23.611s-5.54 18.293-5.54 27.851c0 9.558 1.883 19.021 5.54 27.851s9.018 16.853 15.776 23.611c6.758 6.758 14.781 12.119 23.611 15.776s18.293 5.54 27.851 5.54h878.446z"></path>
</svg>
